PathFileType	4	(X/Y/Z)	\\Move.snu.ac.kr\motion\Animal\091204_091205_Bird\091205_bird\Project 2\Capture day 2\Session 1\pigeon_009.trc
DataRate	CameraRate	NumFrames	NumMarkers	Units	OrigDataRate	OrigDataStartFrame	OrigNumFrames
240.0	240.0	10	14	mm	240.0	37	2292
Frame#	Time	14MarkersBird:Head			14MarkersBird:C_back			14MarkersBird:Spine			14MarkersBird:L-shoulder			14MarkersBird:L-elbow			14MarkersBird:L-wrist			14MarkersBird:L-hand			14MarkersBird:R-shoulder			14MarkersBird:R-elbow			14MarkersBird:R-Wrist			14MarkersBird:R-hand			14MarkersBird:C_Tail			14MarkersBird:L-Tale			14MarkersBird:R-Tale			
		X1	Y1	Z1	X2	Y2	Z2	X3	Y3	Z3	X4	Y4	Z4	X5	Y5	Z5	X6	Y6	Z6	X7	Y7	Z7	X8	Y8	Z8	X9	Y9	Z9	X10	Y10	Z10	X11	Y11	Z11	X12	Y12	Z12	X13	Y13	Z13	X14	Y14	Z14	

803	3.342	835.67969	2381.24023	-1926.21362	892.59167	2365.21240	-1918.00500	945.23059	2347.25537	-1907.08728	860.81720	2369.40991	-1895.26453	900.01947	2373.93408	-1883.67200	862.89581	2393.64575	-1872.52148	847.30042	2379.61987	-1860.57288	866.73950	2357.93359	-1944.60229	903.55896	2358.13208	-1954.04773	869.95923	2362.93457	-1977.21289	852.45831	2335.18970	-1987.14954	1019.29193	2258.56274	-1857.96179	962.28772	2337.69971	-1807.05798	983.03693	2238.26294	-1949.14160	
804	3.346	832.14587	2383.22461	-1927.07129	888.44965	2367.09204	-1917.50671	941.14404	2349.83252	-1905.08264	856.29376	2372.27148	-1895.81104	899.45856	2380.16089	-1889.87866	865.60217	2404.98242	-1876.73010	856.95398	2393.52490	-1856.80200	864.11670	2362.02417	-1944.12048	902.59302	2367.99097	-1948.53772	874.81964	2374.62256	-1978.51221	867.02972	2347.98608	-1997.62952	1012.37897	2259.64795	-1853.81091	953.85046	2340.55078	-1804.25610	977.90802	2240.42407	-1947.17261	
805	3.350	828.88245	2385.41870	-1928.06885	884.49414	2368.81201	-1917.10620	936.90167	2352.07153	-1903.20361	852.12762	2375.32739	-1896.93579	897.90723	2384.57324	-1896.50610	868.05090	2414.42944	-1883.30835	867.56573	2407.63086	-1858.37756	861.69983	2365.71606	-1943.32129	901.21057	2378.96826	-1941.88904	878.47552	2386.36792	-1976.60510	882.09686	2365.13159	-2002.64722	1005.33527	2260.81470	-1849.52100	946.33374	2343.03149	-1801.77173	973.07935	2243.01709	-1946.33044	
806	3.354	825.90820	2387.88428	-1929.24829	880.73810	2370.43408	-1916.80054	932.67505	2354.05347	-1901.41553	848.49945	2378.50488	-1898.52368	895.49048	2387.50000	-1902.55164	869.56451	2422.12842	-1891.22046	877.07501	2421.44971	-1865.36755	859.30823	2368.74829	-1942.46436	896.59637	2384.38208	-1933.96167	880.31451	2397.69873	-1972.38879	895.09412	2385.36157	-2001.35046	998.38928	2262.20557	-1845.09302	939.72186	2345.40820	-1799.55823	968.64832	2245.85522	-1946.26563	
807	3.358	823.11163	2390.54077	-1930.50769	877.16083	2371.99683	-1916.58679	928.59833	2355.80298	-1899.69214	845.32513	2381.52515	-1900.25122	892.37292	2389.61719	-1907.41956	869.59851	2428.44751	-1899.30090	884.03302	2434.11572	-1876.70667	856.81836	2371.23706	-1941.94995	891.93152	2387.97363	-1929.12317	880.02374	2408.14355	-1967.04211	903.92944	2406.40747	-1994.29443	991.79211	2263.79419	-1840.70642	933.73633	2347.85938	-1797.55078	964.50983	2248.61108	-1946.41748	
808	3.362	820.29156	2393.21240	-1931.64880	873.72888	2373.53516	-1916.45959	924.71613	2357.28857	-1898.00537	842.39337	2384.15137	-1901.80127	888.54999	2391.55688	-1911.05652	867.87640	2433.77661	-1906.44092	887.66473	2444.75757	-1890.54565	854.24078	2373.44019	-1941.95874	885.77399	2389.93530	-1929.62476	877.58319	2417.15820	-1961.90198	907.45117	2425.99512	-1983.63281	985.80768	2265.51221	-1836.62354	928.02759	2350.49414	-1795.71594	960.57898	2251.00220	-1946.22595	
809	3.367	817.34851	2395.79663	-1932.59131	870.40564	2375.08643	-1916.41479	921.08844	2358.56494	-1896.27917	839.48737	2386.40186	-1903.01367	884.07806	2393.78711	-1913.63037	864.48480	2438.50024	-1911.58899	887.61908	2453.03638	-1904.23389	851.62042	2375.46777	-1942.36414	880.54663	2393.14258	-1930.99414	873.49158	2424.16309	-1958.46301	905.67719	2442.44775	-1972.86426	980.59955	2267.34912	-1833.03992	922.32068	2353.37793	-1794.06592	956.91663	2252.92529	-1945.28101	
810	3.371	814.34161	2398.32837	-1933.44263	867.15454	2376.68823	-1916.44751	917.75665	2359.80298	-1894.47070	836.43933	2388.49634	-1903.88086	879.14130	2396.56421	-1915.16467	859.84253	2442.82764	-1913.79089	883.98181	2459.44556	-1914.60779	848.93225	2377.26172	-1943.02441	876.04779	2397.59570	-1933.15698	868.88702	2428.69116	-1958.06189	899.94592	2454.71387	-1965.92859	976.10669	2269.40015	-1829.98486	916.49554	2356.53638	-1792.64746	953.70984	2254.52417	-1943.42810	
811	3.375	811.35596	2400.87500	-1934.33801	863.93909	2378.37793	-1916.55310	914.61920	2361.22632	-1892.68762	833.18420	2390.61963	-1904.48633	873.80109	2399.89380	-1915.45972	854.38849	2446.64868	-1912.40234	877.36719	2464.93359	-1918.84863	846.09375	2378.72949	-1943.96680	872.07581	2401.75293	-1936.03943	865.06580	2430.39355	-1961.26611	892.67688	2462.05029	-1965.68591	972.04950	2271.82983	-1827.33240	910.60071	2359.93872	-1791.51392	951.13000	2256.14380	-1940.81177	
812	3.379	808.41791	2403.46533	-1935.33582	860.72266	2380.19360	-1916.72668	911.41553	2363.01782	-1891.18970	829.73541	2392.80859	-1904.98596	867.90234	2403.58521	-1914.24390	848.25110	2449.57471	-1907.33362	868.63623	2470.10620	-1915.63586	843.01410	2379.82397	-1945.22546	868.42920	2403.87964	-1939.56763	862.66315	2428.96606	-1967.55542	886.33551	2463.78687	-1972.70459	968.09198	2274.79004	-1824.90271	904.80286	2363.50098	-1790.68848	949.15930	2258.13257	-1937.79590	
